<svg width="24" height="25" viewBox="0 0 24 25" fill="none" xmlns="http://www.w3.org/2000/svg">
<g clip-path="url(#clip0_507_604)">
<path fill-rule="evenodd" clip-rule="evenodd" d="M8.25 9.5C8.25 9.08579 8.58579 8.75 9 8.75H15C15.4142 8.75 15.75 9.08579 15.75 9.5C15.75 9.91421 15.4142 10.25 15 10.25H9C8.58579 10.25 8.25 9.91421 8.25 9.5ZM9 13.25H15C15.4142 13.25 15.75 12.9142 15.75 12.5C15.75 12.0858 15.4142 11.75 15 11.75H9C8.58579 11.75 8.25 12.0858 8.25 12.5C8.25 12.9142 8.58579 13.25 9 13.25ZM12 14.75H9C8.58579 14.75 8.25 15.0858 8.25 15.5C8.25 15.9142 8.58579 16.25 9 16.25H12C12.4142 16.25 12.75 15.9142 12.75 15.5C12.75 15.0858 12.4142 14.75 12 14.75ZM21 5V15.1897C21.0013 15.5877 20.8429 15.9697 20.5603 16.25L15.75 21.0603C15.4697 21.3429 15.0877 21.5013 14.6897 21.5H4.5C3.67157 21.5 3 20.8284 3 20V5C3 4.17157 3.67157 3.5 4.5 3.5H19.5C20.3284 3.5 21 4.17157 21 5ZM4.5 20H14.25V15.5C14.25 15.0858 14.5858 14.75 15 14.75H19.5V5H4.5V20ZM15.75 16.25V18.9406L18.4397 16.25H15.75Z" fill="#1C170D"/>
</g>
<defs>
<clipPath id="clip0_507_604">
<rect width="24" height="24" fill="white" transform="translate(0 0.5)"/>
</clipPath>
</defs>
</svg>
